<?xml version="1.0" encoding="UTF-8" standalone="no"?>
<svg
   id="svg52"
   version="1.1"
   viewBox="0 0 400 399.99997"
   width="400"
   height="399.99997"
   xmlns="http://www.w3.org/2000/svg"
   xmlnsSvg="http://www.w3.org/2000/svg">
  <defs
     id="defs56" />
  <g
     class=""
     transform="matrix(1,0,0,0.94733043,-83.684861,-55.027317)"
     id="g50">
    <path
       d="m 283.37284,58.08672 c -6.49933,0 -12.99971,1.40482 -18.03416,4.214461 l -160.7499,89.689259 c -10.071009,5.61928 -10.071009,14.50498 0,20.12425 l 160.7499,89.68926 c 10.07101,5.61929 25.99625,5.61929 36.06621,0 l 160.7499,-89.68926 c 10.07101,-5.61826 10.07101,-14.50497 0,-20.12323 L 301.40489,62.302196 C 296.36938,59.490525 289.87111,58.08672 283.37284,58.08672 Z m -0.86714,53.90897 c 9.48485,0.0985 18.01311,2.19452 25.58267,6.28515 5.17758,2.79948 8.56931,5.99181 10.17204,9.57998 1.55011,3.55976 1.64167,8.2523 0.27361,14.07358 l -1.68376,5.79184 c -1.1155,4.14443 -1.34701,7.12561 -0.69456,8.94254 0.59984,1.79053 2.08682,3.32731 4.46408,4.61235 l 3.56747,1.92655 -34.97491,18.90012 -3.88634,-2.09809 c -4.33358,-2.3407 -7.09706,-4.9859 -8.29569,-7.93765 -1.25019,-2.97915 -1.04183,-7.71738 0.6251,-14.21568 l 1.60378,-5.83447 c 0.93344,-3.4745 1.02394,-6.32373 0.27362,-8.54464 -0.68719,-2.25746 -2.24572,-4.04292 -4.67666,-5.35638 -3.69901,-1.99965 -8.13047,-2.71627 -13.2912,-2.15495 -5.21546,0.53392 -10.59929,2.30213 -16.1536,5.30361 -5.2323,2.82689 -9.98366,6.36635 -14.25937,10.61736 -4.32727,4.22461 -8.03997,9.05824 -11.14125,14.50294 l -24.88812,-13.45136 c 5.59641,-5.42034 11.09495,-10.16059 16.49667,-14.2238 5.40277,-4.06019 11.10652,-7.71434 17.11334,-10.96248 15.76003,-8.51622 30.41613,-13.58128 43.96726,-15.19216 3.37595,-0.41007 6.64561,-0.59887 9.80792,-0.56538 z m 53.41422,57.55298 28.21882,15.25001 -34.97492,18.90011 -28.21986,-15.249 34.97596,-18.90011 z M 93.85479,189.10449 c -6.054181,-0.15733 -10.169929,4.40124 -10.169929,12.46474 v 160.06832 c 0,11.21827 7.966304,24.5265 18.037309,30.13666 l 154.62206,86.12442 c 10.07101,5.60913 18.03731,1.17339 18.03731,-10.04386 V 307.7834 c 0,-11.21826 -7.9663,-24.52345 -18.03731,-30.13462 L 101.72217,191.52537 c -2.830824,-1.57839 -5.498536,-2.362 -7.86738,-2.42291 z m 379.66014,0.002 c -2.36779,0.0609 -5.0334,0.84249 -7.86528,2.42088 l -154.62732,86.12341 c -10.07101,5.61015 -18.03731,18.91839 -18.03731,30.13665 v 160.07239 c 0,11.21623 7.9663,15.64994 18.03731,10.03878 l 154.62838,-86.12036 c 10.071,-5.61016 18.03415,-18.91636 18.03415,-30.13463 V 201.57126 c 0,-8.06147 -4.1147,-12.61902 -10.16993,-12.46271 z m -338.37848,64.71107 c 6.89606,1.38655 13.19439,3.0837 18.89392,5.08841 5.69849,2.00573 11.20018,4.48345 16.50088,7.4352 13.90473,7.74478 24.50507,16.56957 31.79997,26.47437 7.2949,9.84592 10.94235,20.34756 10.94235,31.50695 0,5.72485 -1.11023,10.24585 -3.33385,13.56505 -2.22256,3.26031 -6.01313,5.9989 -11.36961,8.21575 l -5.47223,1.94889 c -3.87476,1.4637 -6.41198,2.97205 -7.6085,4.5271 -1.19652,1.49414 -1.79426,3.55468 -1.79426,6.18364 v 3.94344 L 152.8349,345.51863 V 341.225 c 0,-4.791 0.9387,-8.50201 2.8203,-11.13503 1.88056,-2.6919 5.84266,-5.21732 11.88316,-7.57933 l 5.47223,-2.03618 c 3.24861,-1.22821 5.61325,-2.7731 7.09496,-4.63571 1.53643,-1.83012 2.30675,-4.08859 2.30675,-6.77642 0,-4.08759 -1.36805,-8.03408 -4.10417,-11.83541 -2.73611,-3.86123 -6.55299,-7.15607 -11.45485,-9.88653 -4.61667,-2.57009 -9.60376,-4.35454 -14.96129,-5.35131 -5.35647,-1.05564 -10.94235,-1.27286 -16.75554,-0.6547 v -27.51783 z m 283.65092,8.73647 c 1.60168,0 3.0855,0.16749 4.45356,0.50042 7.2949,1.72152 10.94235,8.16096 10.94235,19.32035 0,5.72484 -1.11128,11.4842 -3.33385,17.27908 -2.22257,5.735 -6.01314,12.69516 -11.36961,20.87742 l -5.47223,8.04321 c -3.87476,5.78067 -6.41198,10.11288 -7.6085,12.99966 -1.19653,2.8269 -1.79426,5.55533 -1.79426,8.1843 v 3.94345 l -30.86022,17.18671 V 366.595 c 0,-4.79101 0.9408,-9.55156 2.8203,-14.27862 1.88371,-4.78594 5.84266,-11.72375 11.88316,-20.81246 l 5.47223,-8.13049 c 3.24861,-4.84786 5.61324,-9.0278 7.09495,-12.53985 1.53644,-3.54453 2.30676,-6.66072 2.30676,-9.34856 0,-4.08859 -1.36806,-6.51048 -4.10207,-7.26568 -2.73611,-0.81203 -6.55615,0.14414 -11.45695,2.87258 -4.61667,2.5711 -9.60166,6.34401 -14.95919,11.31266 -5.35647,4.91281 -10.94235,10.91374 -16.75554,18.00687 v -27.51783 c 6.89606,-6.29327 13.19228,-11.6121 18.88971,-15.95446 5.70059,-4.34235 11.20229,-7.9884 16.50088,-10.93913 11.30016,-6.29326 20.41563,-9.44193 27.35063,-9.44701 z m -265.95352,95.93686 30.86127,17.18469 v 31.19839 L 152.8349,389.68927 V 358.4919 Z m 251.77098,8.18125 v 31.19737 l -30.86022,17.18469 v -31.19534 l 30.86127,-17.18672 z"
       fill="#ffffff"
       fill-opacity="1"
       id="path48"
       style="fill:#000000;stroke-width:1.03353" />
  </g>
</svg>
