<?xml version="1.0" standalone="no"?>
<!DOCTYPE svg PUBLIC "-//W3C//DTD SVG 20010904//EN"
 "http://www.w3.org/TR/2001/REC-SVG-20010904/DTD/svg10.dtd">
<svg version="1.0" xmlns="http://www.w3.org/2000/svg"
 width="1135.000000pt" height="1280.000000pt" viewBox="0 0 1135.000000 1280.000000"
 preserveAspectRatio="xMidYMid meet">
<metadata>
Created by potrace 1.15, written by Peter Selinger 2001-2017
</metadata>
<g transform="translate(0.000000,1280.000000) scale(0.100000,-0.100000)"
fill="#000000" stroke="none">
<path d="M5220 12794 c-445 -40 -770 -123 -1276 -327 -635 -257 -933 -423
-1247 -695 -280 -243 -564 -606 -796 -1019 -73 -129 -258 -510 -329 -678 -172
-404 -238 -660 -263 -1027 -15 -227 -16 -1507 -1 -1773 24 -409 43 -599 83
-819 l20 -110 -83 -77 c-211 -194 -290 -343 -258 -484 18 -79 248 -548 368
-750 59 -100 122 -174 184 -214 31 -22 62 -41 68 -43 7 -2 5 -38 -7 -107 -14
-89 -15 -118 -5 -210 21 -186 64 -319 194 -599 39 -84 69 -154 66 -157 -10
-11 -283 -75 -388 -92 -157 -25 -485 -25 -617 0 -287 54 -516 168 -623 310
-55 72 -75 137 -74 237 1 156 75 275 212 342 62 31 73 33 172 33 94 0 111 -3
165 -28 71 -33 140 -96 166 -152 23 -49 25 -135 3 -176 -31 -61 -136 -84 -201
-43 -32 20 -61 17 -73 -6 -16 -31 20 -83 76 -110 42 -21 51 -22 143 -12 128
13 187 39 251 109 55 61 80 124 80 208 0 205 -141 378 -375 460 -74 26 -281
32 -365 11 -306 -77 -507 -365 -487 -696 13 -205 94 -382 251 -548 241 -254
589 -399 1095 -457 117 -14 158 -15 231 -5 66 9 94 9 110 0 40 -22 176 -42
287 -42 l113 -1 0 -211 c0 -300 26 -454 110 -649 103 -239 303 -471 507 -588
41 -23 87 -42 103 -42 23 0 31 -8 55 -56 75 -155 251 -385 434 -570 516 -521
1112 -826 1774 -908 169 -21 968 -23 1147 -4 472 52 900 211 1315 490 383 258
772 667 929 978 25 51 40 71 51 67 8 -3 47 11 87 31 247 126 459 382 566 686
65 184 76 259 76 531 l0 246 111 0 c113 -1 230 14 299 38 31 11 52 12 104 3
122 -22 374 9 632 77 295 77 494 181 668 348 134 129 218 263 264 423 19 64
22 102 22 213 -1 118 -4 145 -27 215 -72 217 -240 376 -457 431 -86 22 -245
22 -329 0 -253 -67 -426 -280 -409 -500 14 -171 122 -266 327 -288 94 -10 103
-9 145 12 53 25 95 83 79 109 -14 22 -47 25 -77 6 -58 -38 -136 -25 -186 31
-26 30 -30 42 -30 91 0 195 244 333 467 264 124 -38 215 -128 253 -250 74
-235 -70 -450 -385 -572 -344 -134 -738 -143 -1180 -29 -66 17 -124 35 -129
40 -5 5 19 67 56 147 149 318 189 450 195 658 4 105 1 154 -10 197 l-15 57 52
30 c72 40 150 128 226 257 86 144 311 592 338 673 58 173 4 303 -217 519
l-105 103 17 92 c73 390 97 840 97 1772 0 948 -15 1112 -136 1486 -75 233
-249 638 -386 899 -389 739 -834 1228 -1395 1534 -263 143 -804 373 -1128 480
-455 150 -802 198 -1280 177 -55 -3 -179 -2 -275 1 -96 3 -195 4 -220 2z m585
-123 c50 -5 155 -13 235 -16 157 -7 344 -22 373 -31 24 -7 74 -109 99 -203 16
-59 21 -106 21 -211 0 -74 -4 -155 -10 -178 -10 -39 -9 -46 8 -63 11 -11 24
-17 29 -14 15 9 110 -76 173 -153 98 -120 142 -236 155 -405 5 -59 11 -109 14
-112 3 -3 45 -17 94 -31 116 -33 163 -62 251 -151 127 -129 192 -244 193 -344
0 -71 21 -84 107 -69 93 16 186 -4 318 -70 124 -62 206 -125 241 -187 63 -113
72 -123 107 -123 17 0 55 7 82 16 107 34 301 17 424 -37 88 -38 199 -111 205
-134 9 -36 31 -36 101 -5 99 44 183 68 288 79 115 13 235 1 254 -25 26 -35
165 -378 212 -521 54 -162 84 -292 107 -453 23 -160 37 -1093 25 -1630 -9
-425 -49 -1180 -62 -1180 -4 0 -45 40 -91 88 -127 134 -171 208 -215 361 -14
47 -17 143 -23 581 -8 587 -7 582 -81 720 -22 41 -80 129 -128 195 -133 184
-188 281 -260 462 -68 173 -118 374 -141 578 -22 188 -14 514 16 668 3 15 1
27 -5 27 -5 0 -21 -35 -35 -78 -96 -305 -99 -659 -7 -1013 63 -245 144 -412
338 -702 189 -283 175 -219 183 -842 8 -520 11 -572 51 -702 52 -169 113 -249
399 -533 266 -263 286 -294 277 -406 -4 -56 -16 -89 -78 -217 -122 -250 -238
-467 -295 -554 -91 -137 -150 -171 -417 -238 -186 -47 -288 -81 -382 -127
-240 -120 -417 -323 -454 -523 -5 -25 -10 -47 -12 -49 -2 -2 -128 58 -279 133
-638 317 -1003 435 -1453 471 -263 22 -487 -11 -666 -97 -156 -75 -271 -206
-327 -373 -28 -84 -26 -254 4 -342 60 -172 204 -302 397 -356 39 -11 90 -31
115 -45 130 -74 310 -74 463 -1 l56 26 68 -29 c64 -26 76 -28 208 -27 121 0
152 4 224 26 l84 26 61 -33 c90 -49 164 -65 302 -64 66 0 142 4 169 9 42 7 54
6 75 -10 131 -100 315 -151 434 -121 46 11 47 11 99 -28 108 -81 224 -120 372
-127 88 -4 108 -9 164 -37 l63 -32 -6 -235 c-3 -129 -9 -247 -12 -262 -6 -26
-9 -22 -41 44 -77 162 -199 290 -342 361 -83 41 -86 42 -190 42 -92 0 -112 -3
-156 -25 -191 -94 -240 -319 -110 -514 66 -100 171 -171 272 -182 117 -14 213
63 213 173 0 51 -28 101 -79 140 -78 60 -110 33 -46 -38 29 -33 35 -47 35 -84
0 -127 -150 -126 -277 1 -91 92 -121 225 -71 316 54 98 176 132 310 87 135
-45 239 -143 314 -294 50 -103 73 -180 81 -281 5 -63 3 -78 -21 -129 -65 -143
-203 -306 -355 -422 -46 -34 -85 -62 -87 -61 -1 2 2 23 6 48 18 91 4 200 -30
242 -15 19 -20 20 -34 9 -13 -11 -16 -34 -16 -121 0 -137 -23 -229 -91 -361
-62 -120 -139 -227 -274 -379 -294 -331 -698 -619 -1125 -800 l-124 -53 -89
12 c-302 43 -577 178 -782 386 -155 156 -236 310 -237 446 -1 81 19 126 78
178 62 54 135 75 238 68 92 -6 155 -29 211 -78 47 -41 65 -83 65 -149 0 -124
-90 -199 -237 -200 -82 0 -94 -12 -36 -37 45 -18 134 -13 179 10 44 23 100 84
123 133 32 67 29 166 -7 235 -122 234 -549 216 -668 -28 l-27 -54 -12 35 c-77
224 -472 291 -637 108 -47 -52 -56 -70 -68 -134 -37 -192 157 -374 325 -304
54 23 43 36 -31 36 -91 0 -141 17 -190 65 -79 77 -81 186 -3 270 62 67 124 90
244 90 84 0 109 -4 152 -24 62 -27 115 -83 133 -136 55 -165 -93 -444 -334
-629 -101 -77 -143 -104 -236 -151 -142 -71 -406 -145 -521 -145 -71 0 -334
120 -551 251 -238 144 -414 283 -618 489 -207 208 -314 347 -395 515 -58 120
-75 196 -75 332 0 115 -10 143 -44 130 -35 -14 -56 -164 -37 -264 5 -24 6 -43
4 -43 -2 0 -39 26 -81 57 -94 69 -213 189 -267 267 l-40 58 1 136 c1 108 6
154 23 216 64 236 215 412 395 461 118 32 232 1 284 -78 23 -35 27 -51 27
-116 0 -94 -25 -150 -102 -222 -93 -88 -189 -114 -238 -64 -44 43 -30 132 27
173 22 16 24 52 3 52 -47 0 -124 -72 -145 -133 -23 -71 21 -161 95 -197 94
-45 209 -14 314 86 115 108 168 243 141 362 -16 73 -32 104 -83 159 -62 67
-125 95 -224 101 -152 8 -276 -50 -414 -196 -114 -120 -176 -239 -207 -397
l-16 -80 -18 75 c-28 119 -38 244 -37 452 l0 193 67 32 c57 27 82 32 167 36
148 8 274 51 379 132 44 33 50 35 84 25 115 -32 296 13 421 104 43 32 49 33
96 25 28 -4 103 -8 169 -8 138 -1 212 15 303 64 61 33 61 34 110 19 189 -58
354 -59 487 -3 l48 21 62 -28 c164 -74 322 -72 462 6 28 16 68 32 89 36 67 12
154 51 221 99 227 162 287 452 151 721 -132 261 -464 389 -924 355 -479 -36
-900 -175 -1560 -517 -111 -57 -205 -104 -208 -104 -3 0 -5 13 -5 28 0 93 -77
246 -178 353 -153 163 -315 244 -678 340 -262 69 -321 104 -415 252 -62 97
-248 458 -315 612 -57 132 -62 184 -24 260 18 35 98 124 271 300 291 296 319
334 375 499 44 129 53 246 57 746 5 582 -2 549 167 780 231 315 356 622 411
1010 19 135 14 395 -10 530 -17 98 -64 276 -77 289 -14 14 -13 -21 2 -125 22
-162 15 -515 -15 -689 -66 -381 -199 -688 -426 -980 -34 -44 -76 -105 -93
-135 -63 -113 -64 -125 -72 -690 -5 -306 -12 -535 -19 -563 -42 -188 -108
-302 -260 -452 -61 -59 -61 -59 -61 -30 0 17 -9 165 -20 330 -28 424 -40 830
-40 1430 0 887 20 1114 130 1460 33 104 137 372 188 486 l29 65 59 14 c33 8
107 13 169 12 126 -1 223 -23 348 -76 84 -37 104 -37 113 -1 6 23 117 96 205
134 124 55 286 69 415 37 113 -28 120 -25 180 74 62 102 119 150 259 220 132
66 225 86 318 70 86 -15 107 -2 107 67 0 100 71 224 205 358 80 80 141 115
253 144 40 10 76 22 79 25 4 3 10 50 14 103 12 156 47 262 120 370 45 66 189
205 206 199 18 -7 56 32 49 50 -3 7 -10 53 -17 101 -13 100 -7 194 21 311 19
77 69 194 89 206 19 12 155 26 366 36 121 6 243 15 270 20 28 5 66 7 85 5 19
-3 76 -9 125 -14z m-965 -103 c-48 -110 -65 -206 -65 -375 0 -90 -2 -163 -5
-163 -3 0 -46 9 -95 19 -50 10 -115 22 -146 26 l-57 6 -26 79 c-31 95 -34 183
-8 285 l18 70 80 23 c100 29 272 69 301 71 l22 1 -19 -42z m1856 -3 c242 -60
226 -52 247 -126 26 -91 23 -178 -7 -275 l-26 -80 -127 -22 c-71 -12 -139 -25
-153 -28 l-25 -5 4 122 c4 158 -21 305 -74 432 -10 24 -2 23 161 -18z m-2311
-102 c-29 -114 -28 -226 1 -322 8 -25 14 -47 14 -48 0 -2 -83 -3 -185 -3
l-185 0 -11 28 c-27 67 -16 215 17 243 16 13 321 127 343 128 9 1 11 -6 6 -26z
m2768 -39 c203 -75 204 -76 218 -127 13 -48 7 -153 -10 -185 -11 -21 -17 -22
-196 -22 -102 0 -185 2 -185 4 0 2 7 23 15 47 29 82 29 247 0 322 -4 9 -4 17
-1 17 4 0 75 -25 159 -56z m-3201 -183 c-3 -52 0 -103 7 -122 6 -18 10 -34 8
-36 -2 -2 -60 -10 -128 -18 -68 -8 -141 -18 -161 -21 -33 -5 -38 -3 -52 25 -9
16 -16 50 -16 75 l0 44 147 62 c172 73 186 79 194 79 3 1 3 -39 1 -88z m3669
-8 c148 -65 149 -65 149 -98 0 -35 -18 -95 -29 -95 -7 0 -204 24 -289 36 -36
4 -42 9 -37 22 15 40 24 126 16 168 -9 45 -8 46 16 39 14 -3 93 -36 174 -72z
m-4061 -119 c0 -25 5 -54 10 -64 9 -16 7 -20 -12 -24 -186 -41 -333 -88 -431
-138 -33 -16 -39 -17 -52 -4 -13 13 -6 20 63 62 81 50 398 214 413 214 5 0 9
-21 9 -46z m4379 -30 c137 -72 362 -206 357 -212 -2 -2 -37 12 -78 31 -92 43
-208 82 -318 105 -66 15 -85 22 -84 35 0 9 1 35 2 57 1 22 5 40 9 40 3 0 54
-25 112 -56z m-3647 -103 c-91 -89 -162 -255 -165 -383 -1 -37 -5 -67 -8 -65
-3 1 -67 27 -140 57 l-135 54 1 71 c1 57 8 85 32 136 38 81 107 172 136 181
12 3 94 6 181 7 l159 1 -61 -59z m3078 50 c31 -9 119 -136 149 -215 12 -34 21
-80 21 -114 l0 -57 -140 -56 -140 -57 0 42 c0 63 -33 183 -75 271 -26 54 -55
94 -97 136 l-60 59 159 -1 c87 -1 169 -4 183 -8z m-2790 -16 c63 -8 128 -19
144 -23 l28 -8 -41 -29 c-158 -109 -290 -363 -291 -557 l0 -47 -96 64 c-52 35
-103 67 -113 70 -26 8 -32 52 -21 138 15 121 52 210 124 300 36 45 114 106
136 107 9 0 67 -7 130 -15z m2410 -20 c101 -74 173 -199 197 -346 21 -124 15
-147 -48 -183 -28 -16 -79 -48 -114 -71 l-62 -43 -6 77 c-12 156 -86 325 -194
440 -35 39 -80 80 -100 92 l-37 23 34 9 c37 9 210 34 254 36 18 1 45 -12 76
-34z m787 -20 c12 -8 34 -35 49 -61 23 -40 26 -52 20 -102 -4 -31 -8 -57 -9
-59 -2 -1 -57 -22 -123 -46 l-119 -43 0 76 c0 85 -24 149 -88 233 -21 26 -37
49 -37 50 0 10 288 -36 307 -48z m-3904 -2 c-60 -79 -86 -147 -87 -230 -1 -40
-4 -73 -7 -73 -17 0 -216 74 -227 85 -7 6 -15 36 -18 66 -5 47 -2 59 21 94 15
22 37 48 50 57 23 17 180 45 267 47 l38 1 -37 -47z m-380 -54 c-20 -41 -24
-61 -21 -101 4 -42 3 -48 -11 -43 -15 6 -117 35 -236 68 l-50 13 85 34 c69 27
220 74 252 79 4 1 -4 -22 -19 -50z m4444 31 c55 -13 201 -63 238 -83 28 -14
27 -14 -66 -37 -52 -13 -118 -31 -148 -42 -30 -10 -55 -18 -55 -18 -1 0 0 24
2 52 3 42 -2 63 -23 102 -21 40 -23 47 -9 42 10 -4 37 -11 61 -16z m-4942
-127 c11 -15 6 -25 -37 -73 -61 -68 -143 -190 -194 -290 -21 -41 -39 -76 -40
-78 -1 -2 -20 6 -41 16 -47 25 -104 36 -132 27 -34 -10 -25 -33 17 -41 37 -6
122 -49 122 -62 0 -3 -28 -74 -62 -158 l-61 -151 -56 29 c-93 47 -193 55 -260
18 l-24 -12 23 33 c178 254 391 488 609 666 63 51 117 93 119 93 3 0 10 -8 17
-17z m5484 -80 c47 -37 141 -121 209 -187 l123 -121 -43 -11 c-24 -6 -57 -18
-74 -27 l-32 -16 -60 107 c-67 120 -134 216 -195 280 -61 63 -26 51 72 -25z
m-5201 21 c63 -14 127 -30 141 -36 25 -9 25 -10 6 -20 -38 -21 -80 -60 -107
-100 l-27 -40 -33 48 c-18 26 -54 76 -80 111 -33 44 -43 63 -31 63 8 0 67 -12
131 -26z m4915 -51 c-31 -43 -68 -93 -81 -111 l-24 -33 -29 45 c-17 25 -51 59
-76 75 -45 30 -45 31 -21 40 35 13 238 59 266 60 20 1 17 -7 -35 -76z m-5097
-6 c12 -18 50 -66 84 -105 52 -61 59 -73 43 -78 -47 -14 -104 -45 -137 -74
l-36 -32 0 78 c0 102 11 244 19 244 3 0 16 -15 27 -33z m5228 -44 c3 -42 6
-114 6 -161 l0 -86 -32 31 c-35 33 -107 73 -133 73 -26 0 -17 19 41 88 31 36
66 81 78 99 11 18 24 33 27 33 3 0 9 -34 13 -77z m-5329 -103 c0 -147 -1 -151
-20 -143 -11 4 -55 7 -97 8 -43 0 -78 1 -78 2 0 19 180 283 193 283 1 0 2 -68
2 -150z m5447 87 c41 -55 138 -208 138 -218 0 -2 -35 -4 -77 -4 -43 0 -86 -4
-95 -9 -17 -8 -18 2 -18 127 0 75 -3 142 -6 151 -13 34 13 13 58 -47z m-4822
18 c56 -19 105 -36 107 -39 2 -2 -21 -17 -51 -34 -61 -35 -136 -116 -181 -197
l-31 -54 -66 87 c-62 82 -65 88 -53 112 33 64 129 160 160 160 6 0 58 -16 115
-35z m4308 4 c22 -16 59 -57 82 -91 l40 -61 -23 -31 c-13 -17 -43 -57 -67 -89
-41 -55 -44 -57 -52 -36 -14 37 -93 142 -137 182 -22 20 -59 46 -82 57 -22 12
-39 24 -36 26 6 7 208 73 223 74 5 0 29 -14 52 -31z m-4017 -110 c56 -22 115
-47 132 -56 l30 -15 -62 -30 c-110 -53 -228 -180 -309 -331 l-31 -58 -76 98
c-69 90 -75 101 -69 133 15 89 112 206 223 272 25 15 49 28 53 28 4 0 53 -18
109 -41z m3723 11 c109 -64 201 -174 221 -268 6 -29 0 -42 -67 -132 -70 -95
-88 -113 -88 -89 0 18 -90 164 -134 218 -56 67 -129 126 -200 160 -37 18 -54
31 -46 36 19 11 244 104 254 105 5 0 32 -13 60 -30z m-4286 -182 l63 -83 -43
-11 c-111 -29 -245 -103 -282 -156 -13 -19 -14 -19 -19 -1 -3 10 -7 65 -9 123
l-3 104 47 36 c52 39 118 68 158 69 20 1 38 -16 88 -81z m4873 47 c30 -14 66
-38 80 -51 26 -25 26 -26 21 -142 -2 -64 -5 -118 -6 -119 -2 -2 -24 18 -51 42
-53 50 -149 100 -237 125 l-58 16 63 83 c60 80 63 82 98 78 20 -3 61 -17 90
-32z m-3965 -41 c55 -30 103 -59 107 -64 5 -4 -9 -11 -30 -15 -157 -29 -405
-272 -458 -448 l-11 -39 -76 94 -76 93 35 70 c48 96 114 187 169 231 39 32
216 133 235 134 4 0 51 -25 105 -56z m3048 21 c154 -73 245 -164 326 -325 l38
-76 -69 -84 c-38 -47 -69 -88 -69 -92 0 -5 -4 -8 -10 -8 -5 0 -10 8 -10 19 0
36 -71 159 -135 235 -105 122 -219 203 -325 231 l-44 11 104 61 c58 34 109 62
113 62 4 1 41 -15 81 -34z m1603 -97 c71 -87 173 -224 173 -234 0 -3 -9 -4
-21 -1 -36 10 -132 -11 -191 -42 -57 -29 -57 -29 -64 -8 -3 12 -31 80 -60 151
-30 71 -54 132 -54 137 0 19 95 63 146 68 6 1 38 -32 71 -71z m-5961 38 l51
-24 6 -83 c8 -94 9 -169 3 -169 -2 0 -20 7 -39 15 -72 30 -197 15 -319 -39
-13 -6 -5 21 31 106 69 163 75 172 118 190 79 34 84 34 149 4z m5648 -9 c35
-20 44 -34 96 -157 32 -74 57 -136 56 -137 -1 -1 -31 10 -66 24 -84 34 -207
43 -264 19 -22 -9 -41 -14 -43 -12 -3 3 -2 59 2 126 l8 122 51 24 c58 28 97
26 160 -9z m-5049 -217 l75 -100 -27 -6 c-199 -44 -320 -101 -416 -195 -38
-38 -70 -62 -73 -56 -2 7 -11 68 -19 137 -13 118 -13 126 3 149 62 85 225 171
324 171 l57 0 76 -100z m4578 58 c46 -22 99 -58 133 -90 54 -51 55 -53 50 -98
-15 -124 -29 -235 -31 -238 -1 -1 -33 28 -71 65 -100 98 -220 155 -417 198
l-28 6 77 100 78 101 65 -4 c50 -2 85 -12 144 -40z m-5163 -155 l59 -18 6 -55
c3 -30 12 -97 19 -148 l12 -93 -30 8 c-17 4 -92 8 -166 8 -155 0 -218 -15
-299 -69 -60 -41 -61 -40 -26 87 59 212 59 212 124 241 65 29 159 54 209 55
18 1 59 -7 92 -16z m5652 -2 c41 -11 95 -29 121 -41 44 -21 47 -25 71 -98 29
-86 76 -262 71 -262 -2 0 -26 15 -54 34 -86 58 -138 71 -296 71 -77 0 -154 -4
-171 -8 l-30 -8 12 83 c6 46 15 112 18 148 l7 66 52 16 c71 21 111 21 199 -1z
m-6176 -17 c28 -9 64 -26 79 -39 l29 -22 -37 -119 c-20 -66 -42 -144 -49 -174
-6 -30 -12 -56 -13 -58 -1 -1 -28 13 -59 32 -80 48 -199 78 -292 74 -41 -2
-74 -1 -74 1 0 8 79 140 141 236 l58 90 83 -3 c46 -2 106 -10 134 -18z m6722
-41 c47 -71 139 -224 148 -246 5 -15 -2 -17 -47 -17 -74 0 -198 -36 -265 -76
-31 -19 -58 -33 -59 -32 -1 2 -7 30 -14 63 -7 33 -29 111 -47 173 -19 62 -32
117 -29 123 7 11 80 49 115 60 14 4 55 8 92 8 l67 1 39 -57z m-5425 -95 l65
-93 -64 -7 c-124 -15 -275 -81 -395 -174 -63 -48 -133 -129 -145 -167 -7 -23
-25 29 -59 176 l-13 58 84 88 c106 112 212 170 365 200 92 18 90 19 162 -81z
m4142 66 c113 -29 206 -87 300 -186 48 -50 84 -95 82 -102 -2 -6 -16 -62 -32
-123 l-29 -113 -27 48 c-50 87 -169 181 -310 246 -85 39 -138 55 -219 64 l-57
7 66 93 66 94 50 -7 c27 -3 77 -13 110 -21z m-4864 -280 l58 -16 12 -52 c6
-28 24 -86 40 -130 28 -78 28 -78 6 -71 -12 4 -81 9 -153 12 -112 4 -143 2
-215 -16 -106 -27 -214 -78 -268 -126 l-41 -37 1 43 c0 24 8 95 18 158 17 109
19 116 52 143 122 103 319 140 490 92z m5623 11 c81 -17 177 -61 225 -102 29
-25 35 -38 47 -108 8 -44 17 -116 21 -160 l6 -79 -34 33 c-48 45 -200 116
-292 136 -60 13 -108 16 -205 12 -70 -3 -137 -8 -149 -12 l-21 -7 24 67 c13
36 31 95 40 130 l16 63 62 16 c114 29 164 31 260 11z m-6378 -42 c29 -11 80
-40 114 -64 57 -40 61 -45 56 -73 -4 -17 -11 -84 -17 -150 -6 -66 -11 -121
-12 -122 -1 -1 -47 13 -102 32 -128 42 -289 62 -404 48 -45 -5 -81 -9 -81 -8
0 7 94 199 133 273 l50 93 106 -4 c73 -4 122 -11 157 -25z m7178 -144 c47 -94
86 -174 86 -178 0 -4 -37 -6 -82 -3 -108 5 -263 -19 -368 -57 -46 -17 -84 -30
-86 -28 -1 1 -7 61 -14 132 -6 72 -13 139 -16 150 -4 16 6 29 48 57 110 75
170 95 279 97 l66 1 87 -171z m-7262 -5849 c288 -97 472 -270 547 -514 12 -37
21 -71 21 -76 0 -16 -428 -211 -623 -284 l-68 -26 -61 128 c-88 186 -144 326
-174 438 -22 82 -27 122 -28 229 0 72 2 146 7 166 l7 36 143 -34 c78 -19 181
-47 229 -63z m7372 44 c19 -144 0 -319 -54 -485 -38 -116 -191 -449 -206 -449
-36 0 -616 255 -670 295 -16 11 -16 17 -4 61 21 78 73 184 123 250 122 161
333 272 662 348 144 34 141 35 149 -20z m-3817 -3761 c133 -286 486 -551 858
-643 l110 -27 -40 -11 c-50 -14 -199 -48 -241 -56 -30 -5 -32 -4 -37 35 -6 49
-37 84 -85 100 -36 12 -215 7 -261 -7 -24 -7 -24 -7 -8 17 25 35 22 109 -6
150 -103 153 -274 72 -318 -150 l-12 -63 -18 70 c-10 39 -27 88 -38 109 -23
47 -81 100 -117 109 -63 16 -135 -21 -170 -88 -19 -37 -18 -108 3 -137 16 -24
16 -24 -8 -17 -46 14 -225 19 -261 7 -49 -16 -78 -51 -86 -103 l-7 -45 -114
23 c-142 29 -233 56 -206 61 368 71 674 248 866 502 55 73 139 231 140 265 0
20 1 19 11 -4 6 -14 26 -57 45 -97z"/>
<path d="M5603 11158 c-75 -73 -104 -118 -137 -214 -40 -118 -51 -199 -50
-359 1 -210 29 -360 126 -690 50 -167 120 -357 134 -362 21 -7 152 353 204
557 53 212 64 291 64 490 1 216 -13 298 -74 425 -29 61 -54 96 -108 148 -39
37 -75 67 -82 67 -6 0 -41 -28 -77 -62z"/>
<path d="M4840 10419 c-33 -13 -68 -47 -87 -83 -19 -36 -12 -100 17 -157 12
-22 121 -143 242 -267 248 -255 290 -306 354 -427 32 -59 51 -85 64 -85 25 0
27 9 18 112 -14 157 -59 305 -153 503 -139 291 -324 456 -455 404z"/>
<path d="M6334 10391 c-114 -66 -223 -225 -338 -495 -63 -146 -93 -268 -97
-391 -4 -95 -3 -100 16 -100 15 0 32 22 66 88 60 112 95 154 358 428 120 124
226 243 236 265 26 56 29 112 8 154 -44 84 -152 106 -249 51z"/>
<path d="M4234 10026 c-153 -71 -148 -245 9 -347 36 -23 102 -52 161 -70 409
-125 474 -157 676 -328 41 -35 81 -74 88 -87 15 -28 47 -31 61 -6 19 37 -64
226 -160 362 -68 97 -231 261 -339 340 -203 149 -370 195 -496 136z"/>
<path d="M6870 10031 c-235 -75 -551 -366 -688 -632 -103 -203 -89 -285 30
-167 121 120 270 219 418 278 28 11 125 43 217 70 181 56 243 83 298 132 100
87 101 218 3 290 -18 14 -48 30 -67 37 -49 16 -147 13 -211 -8z"/>
<path d="M4190 9310 c-96 -33 -150 -119 -136 -218 9 -64 33 -109 75 -134 56
-35 194 -31 376 11 99 24 163 33 220 32 86 0 221 -29 261 -56 20 -13 28 -14
40 -4 8 6 14 17 14 24 0 17 -162 148 -258 210 -210 135 -441 188 -592 135z"/>
<path d="M6885 9316 c-96 -22 -193 -63 -290 -121 -89 -53 -228 -159 -274 -209
-23 -24 -24 -28 -9 -43 16 -15 19 -15 43 1 14 9 71 26 128 38 126 25 227 21
377 -16 58 -15 148 -29 200 -32 86 -5 99 -3 140 18 64 33 92 90 88 179 -5 86
-33 129 -107 166 -45 23 -71 28 -145 30 -52 1 -117 -3 -151 -11z"/>
<path d="M5593 9158 c-59 -91 -138 -186 -214 -259 -59 -58 -76 -91 -65 -132 6
-25 65 -110 175 -251 80 -102 123 -176 131 -226 4 -29 10 -35 30 -35 22 0 26
6 30 40 7 48 82 167 194 305 80 99 116 161 116 199 0 14 -27 51 -73 99 -88 94
-172 197 -221 275 -20 31 -41 57 -46 57 -4 0 -30 -33 -57 -72z"/>
<path d="M3437 8770 c-97 -77 -7 -232 101 -176 39 20 52 44 52 96 0 82 -90
129 -153 80z"/>
<path d="M7759 8762 c-29 -26 -34 -37 -34 -75 0 -34 6 -52 24 -71 65 -69 170
-25 171 71 0 56 -31 92 -86 100 -36 5 -46 1 -75 -25z"/>
<path d="M3004 8761 c-94 -43 -128 -167 -70 -254 65 -96 205 -105 279 -18 74
89 47 220 -56 270 -53 26 -99 26 -153 2z"/>
<path d="M8164 8762 c-133 -63 -135 -249 -3 -318 73 -37 184 -3 226 71 83 146
-72 317 -223 247z"/>
<path d="M3884 8746 c-63 -53 -16 -155 65 -142 45 7 71 38 71 83 0 72 -80 108
-136 59z"/>
<path d="M7318 8740 c-25 -26 -29 -36 -24 -63 7 -36 47 -77 77 -77 28 0 75 26
83 45 13 35 6 76 -19 100 -34 35 -78 33 -117 -5z"/>
<path d="M4223 8668 c-34 -44 -14 -98 35 -98 37 0 52 17 52 57 0 22 -6 36 -19
43 -26 14 -56 13 -68 -2z"/>
<path d="M7013 8654 c-15 -24 -15 -29 -2 -53 16 -29 61 -40 85 -20 8 6 14 24
14 40 0 58 -65 81 -97 33z"/>
<path d="M4917 8636 c-6 -15 14 -47 102 -167 146 -200 227 -481 252 -870 21
-343 -23 -696 -128 -1024 -50 -156 -89 -239 -157 -339 -47 -69 -56 -96 -32
-96 43 0 233 284 294 440 103 261 153 551 153 880 0 341 -52 569 -191 839 -79
152 -165 277 -218 318 -47 36 -67 41 -75 19z"/>
<path d="M6345 8631 c-67 -41 -141 -146 -246 -346 -172 -328 -227 -742 -159
-1208 45 -302 113 -503 247 -722 99 -161 156 -227 183 -210 12 7 -3 38 -55
115 -58 86 -89 154 -138 305 -84 256 -123 489 -133 780 -17 490 76 887 270
1146 76 103 89 126 82 145 -7 18 -15 18 -51 -5z"/>
<path d="M2643 8473 c-12 -2 -34 -18 -48 -34 -58 -69 -13 -169 75 -169 60 0
100 41 100 102 0 35 -6 49 -27 70 -30 27 -64 37 -100 31z"/>
<path d="M8612 8468 c-74 -20 -92 -117 -32 -170 74 -67 184 -3 166 95 -11 59
-70 92 -134 75z"/>
<path d="M3909 8457 c-14 -7 -33 -18 -42 -25 -12 -11 -26 -9 -77 8 -80 27
-134 20 -203 -27 -43 -29 -55 -33 -74 -24 -13 6 -47 11 -75 11 -67 0 -132 -31
-164 -80 -24 -36 -26 -37 -77 -33 -71 6 -131 -25 -172 -89 -23 -36 -36 -47
-56 -47 -76 -2 -153 -54 -182 -122 -18 -42 -24 -47 -59 -52 -82 -11 -158 -95
-158 -174 0 -26 -5 -31 -37 -42 -78 -24 -123 -87 -123 -173 0 -47 -3 -58 -19
-63 -62 -19 -103 -84 -102 -159 0 -49 -1 -52 -38 -73 -62 -35 -96 -126 -72
-187 6 -15 -1 -28 -30 -55 -50 -49 -67 -105 -47 -164 l14 -44 -33 -36 c-38
-42 -44 -96 -17 -149 15 -29 15 -31 -13 -60 -23 -24 -28 -38 -28 -78 0 -42 5
-54 32 -82 l33 -34 -20 -39 c-38 -75 -16 -152 56 -200 28 -18 30 -24 30 -80 0
-93 44 -154 127 -172 24 -5 27 -10 27 -47 0 -23 10 -61 23 -86 38 -77 138
-111 222 -76 34 15 35 14 49 -13 22 -42 80 -89 126 -101 52 -14 109 1 153 40
l34 29 48 -24 c82 -42 185 -28 232 32 10 13 17 13 58 -1 64 -22 117 -8 167 45
32 33 41 38 57 29 28 -14 97 -12 129 4 15 8 37 25 50 39 22 23 25 24 63 10 68
-23 156 8 181 63 10 22 17 25 45 21 53 -9 104 11 150 59 37 39 45 42 77 37 19
-3 46 -3 60 1 36 9 87 55 103 94 10 24 19 32 30 28 49 -19 143 48 158 113 4
20 11 28 20 25 22 -9 87 16 117 44 15 14 35 44 44 68 14 37 21 43 59 53 57 14
101 65 110 125 6 40 11 46 41 56 69 23 114 106 100 185 -6 31 -3 39 25 62 58
49 75 129 42 198 -16 34 -16 36 5 57 47 52 54 121 18 192 -23 46 -23 47 -5 83
35 69 19 156 -37 203 -27 24 -29 29 -29 102 0 86 -14 114 -76 156 -30 20 -35
30 -40 77 -10 87 -88 165 -164 165 -17 0 -25 5 -25 18 0 10 -11 41 -25 69 -36
72 -89 106 -171 111 -59 4 -65 6 -83 37 -44 75 -143 117 -227 96 -46 -12 -48
-11 -78 18 -17 16 -48 37 -68 45 -43 18 -131 20 -169 3z"/>
<path d="M7240 8454 c-19 -8 -49 -28 -66 -45 -30 -29 -32 -29 -80 -18 -84 19
-174 -19 -223 -94 -23 -34 -28 -37 -74 -37 -93 0 -175 -66 -199 -159 -9 -34
-15 -41 -35 -41 -29 0 -92 -31 -114 -56 -30 -34 -49 -82 -49 -123 0 -35 -4
-43 -29 -56 -17 -8 -43 -32 -58 -52 -25 -32 -28 -45 -28 -112 0 -71 -2 -77
-29 -101 -56 -47 -72 -134 -37 -203 18 -36 18 -37 -5 -83 -35 -69 -28 -142 17
-190 21 -22 21 -24 5 -64 -31 -77 -14 -145 47 -196 27 -22 34 -33 27 -44 -14
-22 -12 -76 4 -113 16 -40 66 -83 105 -92 22 -5 28 -11 24 -25 -3 -10 4 -39
15 -64 22 -49 64 -82 120 -92 24 -5 32 -11 32 -28 0 -55 68 -119 141 -131 32
-6 40 -12 49 -39 20 -61 103 -116 152 -100 13 4 21 -2 29 -23 25 -65 88 -106
158 -102 42 3 49 0 86 -38 44 -44 97 -65 148 -56 28 4 34 1 50 -26 32 -55 109
-81 175 -58 39 14 42 13 64 -10 46 -50 119 -67 182 -44 20 8 27 6 40 -14 38
-58 115 -82 184 -59 43 15 45 15 71 -9 40 -38 65 -47 123 -47 38 0 65 7 97 25
l43 25 34 -30 c90 -78 221 -49 280 62 14 26 15 27 49 12 84 -35 184 -1 223 76
12 25 22 63 22 86 0 40 2 42 35 48 75 14 134 110 120 195 -5 34 -3 37 33 58
69 39 91 122 52 197 l-19 38 29 29 c49 50 51 123 4 174 -23 24 -23 28 -9 55
29 56 14 135 -30 164 -22 14 -22 16 -7 61 20 61 4 116 -47 166 -29 27 -36 40
-30 55 24 62 -11 152 -73 187 -34 19 -38 25 -33 51 12 64 -34 151 -93 175 -27
11 -29 16 -28 65 1 71 -37 136 -97 165 -24 12 -48 21 -54 21 -6 0 -13 20 -15
45 -10 86 -89 164 -169 165 -20 0 -29 9 -45 48 -30 70 -108 122 -184 122 -21
0 -30 7 -40 30 -28 68 -117 116 -196 107 -41 -4 -44 -3 -68 33 -44 68 -150 98
-235 69 -28 -10 -35 -9 -54 9 -61 56 -167 73 -238 39 -35 -17 -37 -17 -86 8
-59 29 -138 33 -193 9z"/>
<path d="M2309 8111 c-31 -31 -36 -59 -17 -94 17 -33 39 -46 76 -47 75 0 111
94 56 145 -37 34 -78 33 -115 -4z"/>
<path d="M8894 8116 c-57 -48 -19 -146 56 -146 45 0 84 40 84 85 0 74 -84 110
-140 61z"/>
<path d="M5633 8094 c-3 -8 -1 -20 5 -26 15 -15 43 8 35 28 -7 19 -32 18 -40
-2z"/>
<path d="M5634 7956 c-11 -29 1 -51 26 -51 30 0 38 26 15 49 -20 20 -34 20
-41 2z"/>
<path d="M5619 7746 c-28 -60 33 -115 73 -66 22 27 23 54 2 74 -24 24 -63 20
-75 -8z"/>
<path d="M2166 7724 c-22 -21 -20 -67 2 -87 23 -21 41 -21 70 -1 43 30 20 104
-33 104 -13 0 -31 -7 -39 -16z"/>
<path d="M9070 7720 c-26 -26 -25 -46 5 -75 29 -30 49 -31 75 -5 25 25 26 62
2 83 -25 23 -58 21 -82 -3z"/>
<path d="M5632 7548 c-10 -24 -33 -65 -50 -92 -46 -72 -43 -108 19 -223 28
-52 56 -92 62 -90 6 2 35 44 64 92 69 117 71 151 11 244 -24 36 -47 74 -53 85
-17 33 -33 29 -53 -16z"/>
<path d="M5556 6803 c-46 -71 -151 -245 -234 -388 -83 -143 -193 -331 -245
-417 -161 -268 -217 -422 -219 -603 -2 -178 50 -314 161 -426 78 -77 149 -114
253 -131 62 -9 86 -8 151 6 86 19 157 53 204 98 l32 31 42 -37 c184 -157 469
-137 632 44 106 118 151 257 145 445 -8 209 -47 300 -361 828 -112 188 -219
369 -237 402 -82 147 -185 275 -222 275 -12 0 -46 -42 -102 -127z"/>
<path d="M4685 5995 c-29 -28 -31 -42 -9 -73 17 -25 71 -31 92 -10 21 21 15
75 -10 92 -31 22 -45 20 -73 -9z"/>
<path d="M6555 5996 c-28 -28 -30 -38 -14 -67 20 -39 77 -41 101 -5 12 18 9
63 -4 74 -31 24 -57 23 -83 -2z"/>
<path d="M1855 5907 c-183 -61 -289 -215 -289 -417 1 -177 83 -337 232 -450
89 -66 188 -104 347 -129 232 -38 259 -43 340 -68 204 -63 343 -164 406 -294
20 -41 42 -91 50 -112 7 -20 18 -36 24 -34 5 2 11 40 13 84 3 78 2 81 -49 184
-43 86 -65 117 -128 179 -121 119 -288 193 -506 224 -190 27 -238 38 -303 67
-84 38 -168 122 -212 214 -30 61 -34 80 -34 150 -1 63 4 88 21 120 42 79 123
135 195 135 80 0 168 -82 168 -157 0 -53 -37 -51 -103 3 -53 44 -127 19 -127
-43 0 -42 47 -112 98 -144 37 -24 57 -29 106 -29 84 0 136 32 171 105 68 139
-7 317 -164 392 -67 31 -192 41 -256 20z"/>
<path d="M9253 5905 c-23 -7 -62 -24 -87 -39 -160 -94 -202 -334 -76 -439 59
-50 176 -50 238 0 77 62 106 129 75 171 -28 38 -77 41 -112 9 -28 -27 -63 -47
-81 -47 -6 0 -15 11 -21 24 -15 33 18 105 65 141 117 89 289 -7 320 -178 21
-112 -64 -283 -182 -367 -71 -51 -143 -73 -326 -100 -364 -52 -560 -170 -682
-411 -45 -89 -58 -147 -49 -214 7 -56 22 -72 32 -34 11 42 92 194 120 225 64
72 192 148 323 193 36 13 123 32 195 43 364 56 443 85 575 217 128 126 177
252 168 427 -6 106 -40 192 -102 262 -99 109 -263 158 -393 117z"/>
<path d="M4305 5766 c-13 -13 -27 -36 -31 -50 -14 -56 38 -116 99 -116 30 0
75 35 88 68 12 32 -5 87 -34 107 -34 24 -94 19 -122 -9z"/>
<path d="M6879 5761 c-61 -62 -14 -161 77 -161 15 0 38 12 55 29 63 63 24 161
-63 161 -30 0 -46 -7 -69 -29z"/>
<path d="M3875 5606 c-64 -28 -106 -109 -90 -173 30 -120 194 -153 265 -53 54
75 28 180 -55 220 -48 23 -78 25 -120 6z"/>
<path d="M7323 5600 c-110 -49 -112 -208 -3 -262 63 -32 128 -19 176 34 67 73
42 187 -49 229 -53 23 -71 23 -124 -1z"/>
<path d="M3269 5387 c-70 -53 -37 -167 48 -167 47 0 72 16 89 56 12 29 12 39
0 68 -8 19 -23 39 -34 45 -27 15 -83 13 -103 -2z"/>
<path d="M7929 5371 c-37 -37 -38 -79 -3 -120 21 -25 34 -31 64 -31 58 0 95
35 95 90 0 84 -95 121 -156 61z"/>
<path d="M2802 5344 c-26 -18 -29 -56 -6 -78 39 -40 105 4 85 56 -8 22 -29 38
-50 38 -3 0 -17 -7 -29 -16z"/>
<path d="M8452 5344 c-27 -18 -29 -55 -4 -77 24 -22 55 -21 75 1 22 25 21 48
-3 72 -24 24 -38 25 -68 4z"/>
<path d="M4237 5254 c-86 -15 -233 -63 -462 -148 -245 -91 -333 -111 -510
-111 -139 0 -159 2 -267 33 -140 38 -148 39 -148 10 0 -40 92 -100 205 -134
45 -13 92 -18 190 -17 212 1 372 45 709 195 100 44 214 88 255 99 142 36 263
19 321 -47 70 -80 6 -171 -133 -190 -73 -10 -72 -28 1 -45 62 -14 131 8 179
55 66 66 71 154 11 222 -41 46 -91 71 -169 84 -78 12 -84 12 -182 -6z"/>
<path d="M6930 5264 c-121 -21 -179 -52 -210 -114 -26 -52 -26 -122 1 -166 40
-65 136 -103 214 -83 61 15 58 35 -6 43 -173 23 -217 156 -78 233 27 14 56 18
134 18 118 0 163 -13 390 -115 220 -99 381 -154 525 -181 90 -16 283 -17 350
0 121 30 241 107 226 147 -8 20 -22 18 -166 -22 -94 -26 -120 -29 -250 -29
-183 1 -273 22 -577 136 -292 109 -459 149 -553 133z"/>
<path d="M3888 3425 c-70 -18 -140 -50 -163 -75 -13 -15 -22 -17 -42 -9 -87
33 -221 -18 -279 -107 -14 -21 -15 -43 -9 -162 10 -173 8 -240 -10 -376 -20
-147 -10 -200 52 -257 45 -43 111 -71 169 -72 51 -2 52 -2 64 -41 24 -80 167
-179 277 -193 38 -4 54 -11 58 -23 13 -43 92 -98 175 -124 183 -58 304 -65
402 -24 l47 20 22 -21 c29 -27 73 -47 145 -66 92 -25 214 -5 285 46 l30 21 35
-36 c72 -74 189 -107 305 -86 75 14 151 44 175 71 23 26 35 24 91 -11 65 -42
144 -64 228 -64 97 0 166 25 226 83 l48 46 28 -22 c99 -80 321 -73 423 14 l31
25 52 -23 c68 -30 178 -30 302 0 148 36 228 80 261 144 12 21 22 27 48 27 89
0 235 92 283 179 26 46 30 49 77 55 66 7 149 49 185 93 47 57 51 94 30 256
-22 169 -23 217 -7 357 6 58 8 118 4 135 -11 42 -84 109 -142 129 -52 17 -131
21 -153 7 -10 -7 -23 -2 -43 14 -63 53 -209 91 -312 80 -39 -4 -91 -6 -116 -4
-25 1 -108 3 -185 3 -161 1 -216 -11 -281 -60 l-43 -33 -43 15 c-58 21 -199
29 -273 15 -33 -6 -82 -22 -108 -35 l-49 -24 -47 29 c-62 39 -174 62 -278 57
-65 -4 -94 -10 -140 -34 l-60 -29 -58 30 c-55 28 -66 30 -169 30 -123 0 -197
-17 -259 -59 l-37 -25 -33 19 c-86 51 -308 65 -401 26 -37 -16 -40 -15 -60 3
-12 11 -48 32 -81 48 -58 27 -66 28 -215 27 -85 0 -173 -1 -195 -3 -22 -1 -78
0 -125 3 -58 4 -103 1 -142 -9z m176 -96 c4 -5 -23 -542 -27 -546 -7 -7 -194
31 -213 44 -20 12 -21 25 -27 191 -4 97 -9 195 -13 217 -8 55 8 72 86 90 55
12 185 15 194 4z m447 -18 c78 -30 93 -49 79 -98 -6 -21 -18 -147 -27 -280
-16 -233 -18 -243 -38 -243 -30 0 -349 61 -356 69 -4 3 0 85 7 181 7 96 13
226 13 289 l1 113 133 -4 c104 -4 144 -9 188 -27z m2621 -16 c-1 -22 4 -139
13 -259 8 -121 15 -233 15 -251 l0 -31 -172 -32 c-95 -18 -181 -32 -190 -32
-19 0 -22 17 -38 285 -5 99 -15 200 -20 224 -15 60 -7 76 50 100 77 33 117 39
235 38 l110 -2 -3 -40z m362 21 c46 -19 55 -40 45 -106 -4 -30 -8 -126 -8
-212 l-1 -157 -27 -14 c-16 -8 -57 -19 -93 -26 -36 -6 -77 -14 -92 -17 -25 -5
-27 -3 -32 48 -3 29 -10 152 -15 273 -7 163 -6 222 3 228 17 12 181 -1 220
-17z m-2571 -46 c82 -13 180 -58 171 -79 -4 -9 -8 -77 -10 -151 -1 -74 -8
-196 -15 -273 l-12 -138 -51 5 c-28 3 -109 11 -181 17 -71 6 -134 15 -139 20
-6 5 -4 86 3 206 7 109 15 240 18 291 l5 92 32 9 c42 12 109 13 179 1z m630
-30 l57 -23 -6 -61 c-3 -34 -9 -164 -12 -291 l-7 -230 -191 -3 -192 -2 -4 132
c-3 73 -1 176 5 228 12 125 14 179 5 211 -7 24 -4 29 35 49 37 19 54 21 147
17 79 -3 119 -9 163 -27z m527 11 l35 -19 2 -84 c1 -45 4 -181 8 -300 l7 -218
-195 0 -194 0 -7 228 c-4 125 -9 257 -12 293 l-6 66 68 26 c89 34 238 37 294
8z m-2397 -88 c4 -38 7 -117 7 -177 l0 -108 -27 5 c-16 4 -56 12 -90 18 l-63
12 0 96 c0 53 -4 110 -9 128 -7 25 -6 35 8 47 28 25 83 45 127 46 l41 0 6 -67z
m4080 53 c58 -21 79 -44 65 -70 -7 -12 -11 -66 -11 -127 l0 -107 -66 -11 c-36
-6 -76 -14 -88 -17 l-23 -6 0 169 c0 93 3 173 7 176 11 11 75 7 116 -7z
m-4077 -565 c-4 -69 -9 -140 -12 -157 -6 -31 -7 -32 -47 -27 -23 3 -54 12 -68
19 -26 13 -112 108 -105 115 3 2 14 54 26 114 l23 111 95 -25 94 -25 -6 -125z
m4163 54 l23 -114 -39 -46 c-46 -56 -74 -72 -133 -76 l-45 -4 -6 60 c-4 33 -7
104 -8 157 l-1 98 28 6 c15 3 50 12 77 19 83 22 78 27 104 -100z m-3825 -38
c8 -3 -8 -309 -21 -391 l-6 -38 -39 6 c-78 13 -148 65 -195 146 -16 26 -19 41
-12 58 6 17 39 264 39 296 0 1 171 -55 234 -77z m3525 -39 c7 -62 16 -134 22
-160 10 -43 8 -51 -16 -92 -35 -60 -88 -103 -149 -121 -87 -26 -81 -36 -94
158 -7 94 -12 191 -12 213 l0 42 103 34 c56 19 109 36 118 36 14 2 18 -17 28
-110z m-3249 -17 c63 -11 140 -23 171 -26 31 -4 61 -10 66 -13 7 -5 12 -99 14
-265 l4 -257 -35 -10 c-55 -16 -129 -12 -220 11 -105 27 -163 52 -195 83 -24
24 -24 26 -9 68 8 23 24 131 36 240 18 170 24 198 37 194 9 -3 68 -14 131 -25z
m2880 -19 c1 -76 39 -360 53 -394 15 -35 14 -37 -11 -61 -40 -37 -87 -58 -187
-83 -98 -26 -169 -30 -228 -13 l-38 10 3 254 c2 139 6 257 10 260 9 9 380 73
391 68 4 -3 7 -21 7 -41z m-2335 -52 c61 -6 133 -10 161 -10 l51 0 7 -202 c4
-112 8 -216 9 -231 2 -26 -5 -33 -67 -65 -62 -33 -78 -37 -145 -37 -63 0 -88
5 -143 30 l-68 30 5 115 c3 63 8 177 11 253 l6 138 32 -6 c17 -3 81 -10 141
-15z m1817 -121 c3 -74 8 -186 10 -249 l4 -116 -65 -29 c-55 -25 -79 -30 -142
-30 -68 0 -84 4 -145 36 l-69 36 1 44 c0 24 4 128 9 232 l8 187 61 1 c34 1
115 7 181 13 66 7 125 12 130 11 6 -1 13 -59 17 -136z m-1070 -141 c3 -274 9
-253 -80 -305 -50 -30 -146 -41 -207 -24 -22 6 -60 23 -85 39 l-45 28 6 105
c4 57 7 170 8 252 l1 147 199 0 200 0 3 -242z m542 130 c3 -62 8 -176 11 -253
l6 -140 -35 -24 c-86 -57 -198 -68 -282 -26 -27 14 -61 35 -75 47 l-26 23 5
243 4 242 193 0 193 0 6 -112z"/>
<path d="M3496 2254 c-25 -25 -30 -62 -16 -135 13 -68 35 -106 44 -78 16 45
36 142 36 171 0 53 -32 74 -64 42z"/>
<path d="M7790 2255 c-8 -10 -11 -33 -7 -68 7 -63 25 -148 33 -156 21 -21 61
126 49 180 -12 52 -50 75 -75 44z"/>
<path d="M3863 2024 c-15 -24 -16 -36 -5 -122 7 -53 16 -100 21 -105 9 -9 37
85 47 159 10 84 -26 123 -63 68z"/>
<path d="M7418 2025 c-9 -20 -9 -42 0 -93 16 -92 32 -143 41 -137 5 2 14 47
20 100 10 77 10 100 -1 122 -18 38 -45 41 -60 8z"/>
<path d="M3223 1876 c-112 -53 -149 -190 -86 -324 25 -54 139 -163 208 -199
79 -41 194 -78 275 -89 36 -4 207 -8 380 -9 294 0 319 -2 377 -22 120 -40 195
-102 239 -198 36 -77 27 -162 -24 -218 -32 -36 -111 -68 -181 -74 -156 -13
-291 76 -291 193 0 71 69 117 148 99 55 -12 53 31 -2 60 -68 37 -172 -1 -213
-78 -25 -47 -22 -141 6 -199 28 -60 107 -133 177 -165 194 -89 417 -28 509
138 27 48 30 63 30 139 0 77 -3 93 -33 153 -48 97 -135 186 -225 230 -123 61
-185 68 -550 65 -307 -3 -326 -2 -402 20 -156 43 -274 124 -316 215 -26 58
-24 100 5 134 21 25 31 28 83 28 42 0 77 -8 125 -28 74 -32 102 -32 106 -1 4
27 -73 98 -141 130 -68 31 -136 31 -204 0z"/>
<path d="M7989 1886 c-114 -40 -212 -152 -145 -164 10 -2 44 8 76 22 189 85
303 -10 199 -168 -51 -76 -154 -139 -297 -179 -72 -20 -96 -21 -384 -19 -318
2 -397 -4 -503 -38 -116 -39 -231 -138 -287 -248 -30 -61 -33 -75 -33 -157 0
-78 4 -97 27 -141 72 -136 236 -205 405 -170 181 37 306 159 306 297 0 103
-76 189 -169 189 -48 0 -107 -34 -102 -58 3 -14 13 -16 55 -14 87 6 133 -32
133 -109 0 -42 -23 -81 -72 -123 -56 -49 -132 -70 -217 -63 -114 10 -187 54
-217 132 -45 119 35 264 182 332 104 47 176 55 449 51 362 -7 464 7 625 84
113 54 207 146 239 233 31 82 27 175 -11 232 -51 77 -166 112 -259 79z"/>
<path d="M4300 1865 c-23 -28 4 -265 30 -265 9 0 35 113 45 198 4 35 2 59 -6
68 -15 19 -53 18 -69 -1z"/>
<path d="M6970 1865 c-10 -12 -10 -34 -2 -100 12 -92 31 -165 42 -165 24 0 51
239 30 265 -16 19 -54 19 -70 0z"/>
<path d="M4858 1808 c-23 -18 -27 -69 -16 -178 11 -102 20 -124 37 -91 20 37
46 219 35 249 -11 31 -32 38 -56 20z"/>
<path d="M6432 1808 c-20 -20 -12 -127 20 -246 23 -89 45 -20 47 145 1 62 -3
85 -15 97 -19 19 -36 20 -52 4z"/>
<path d="M5356 1758 c-9 -12 -16 -38 -16 -58 0 -45 33 -180 44 -183 14 -3 46
122 46 176 0 27 -5 57 -10 68 -14 26 -45 24 -64 -3z"/>
<path d="M5923 1768 c-18 -23 -23 -65 -14 -109 20 -96 36 -149 45 -146 15 5
47 157 42 200 -2 21 -10 44 -16 52 -15 18 -44 19 -57 3z"/>
<path d="M1917 4522 c-40 -44 -7 -122 51 -122 60 0 94 78 52 120 -26 26 -81
26 -103 2z"/>
<path d="M2215 4431 c-98 -43 -97 -196 1 -237 68 -28 133 0 159 70 15 39 16
50 4 87 -8 23 -26 51 -40 61 -29 22 -94 32 -124 19z"/>
<path d="M2442 4127 c-46 -49 -12 -127 56 -127 43 0 72 30 72 75 0 69 -81 102
-128 52z"/>
<path d="M9350 4520 c-43 -43 -11 -120 50 -120 38 0 70 32 70 70 0 38 -32 70
-70 70 -17 0 -39 -9 -50 -20z"/>
<path d="M9040 4418 c-104 -70 -58 -233 65 -233 56 0 95 29 115 83 13 37 13
47 0 84 -28 78 -115 110 -180 66z"/>
<path d="M8819 4131 c-17 -13 -23 -29 -23 -56 0 -46 31 -75 79 -75 38 0 75 37
75 75 0 12 -9 34 -21 49 -25 32 -75 35 -110 7z"/>
</g>
</svg>
